<?xml version="1.0" standalone="no"?>
<!DOCTYPE svg PUBLIC "-//W3C//DTD SVG 20010904//EN"
 "http://www.w3.org/TR/2001/REC-SVG-20010904/DTD/svg10.dtd">
<svg version="1.0" xmlns="http://www.w3.org/2000/svg"
 width="701.000000pt" height="701.000000pt" viewBox="0 0 701.000000 701.000000"
 preserveAspectRatio="xMidYMid meet">
<metadata>
Created by potrace 1.14, written by Peter Selinger 2001-2017
</metadata>
<g transform="translate(0.000000,701.000000) scale(0.100000,-0.100000)"
fill="#000000" stroke="none">
<path d="M1386 5993 c-165 -38 -331 -166 -431 -333 -25 -41 -52 -93 -61 -116
l-16 -41 -50 33 c-119 81 -247 78 -365 -8 -91 -66 -142 -167 -143 -278 l0 -65
-65 -33 c-167 -87 -265 -265 -251 -458 12 -178 99 -326 249 -426 112 -75 289
-92 447 -43 129 40 127 40 134 17 12 -36 105 -119 174 -155 135 -71 273 -102
450 -100 72 1 82 -1 78 -16 -28 -97 -58 -224 -69 -301 -27 -174 -16 -445 24
-610 6 -25 12 -52 14 -60 14 -68 88 -256 138 -350 272 -507 795 -847 1362
-885 22 -2 45 -3 51 -4 5 -1 10 -16 9 -34 -3 -105 67 -265 155 -355 147 -148
349 -188 575 -113 85 29 104 29 105 0 0 -3 15 -21 33 -40 122 -130 302 -198
542 -204 259 -7 456 59 580 193 l31 33 80 -27 c294 -101 613 42 614 274 0 50
1 52 27 52 49 0 140 32 176 61 81 67 103 191 52 295 -33 67 -93 127 -152 151
-43 18 -44 19 -37 53 4 19 8 55 10 78 1 24 4 45 6 46 55 33 97 65 132 100 l44
43 54 -22 c284 -116 629 24 632 256 l1 56 64 12 c81 15 131 41 169 87 78 95
62 244 -37 351 -32 34 -96 73 -120 73 -11 0 -12 11 -6 53 13 91 12 101 -3 162
-31 124 -142 253 -274 320 -131 65 -247 71 -364 16 -77 -36 -74 -35 -74 -17 0
8 -21 57 -47 108 -58 113 -154 216 -251 271 -137 78 -341 84 -491 15 -159 -74
-292 -210 -372 -383 -17 -36 -34 -65 -39 -65 -4 0 -18 8 -31 19 -13 10 -39 26
-56 35 -21 10 -35 26 -38 44 -90 429 -345 816 -690 1047 -33 22 -62 43 -65 46
-11 12 -235 122 -288 141 -91 32 -208 66 -249 73 -180 31 -219 34 -378 30 -93
-2 -179 -5 -190 -8 -11 -3 -42 -8 -68 -11 l-48 -7 7 38 c23 116 -20 237 -119
341 -155 161 -365 214 -526 132 l-61 -30 -25 56 c-14 31 -25 58 -25 60 0 20
-94 144 -143 191 -141 132 -315 179 -501 136z m286 -144 c169 -67 274 -234
323 -519 3 -19 7 -36 9 -38 2 -1 28 26 57 60 94 110 134 132 235 132 213 -1
417 -228 359 -399 -9 -26 -39 -79 -67 -117 l-50 -71 53 6 c30 4 67 10 84 13
51 9 90 -5 133 -47 89 -87 75 -185 -31 -219 -37 -12 -210 -15 -228 -5 -16 10
-10 -21 16 -79 49 -112 22 -180 -96 -241 -105 -54 -259 -50 -380 10 -70 35
-106 69 -131 125 -80 174 81 362 241 281 70 -36 98 -118 60 -181 -28 -46 -88
-60 -126 -28 -22 18 -16 58 11 68 79 30 39 143 -44 125 -43 -9 -96 -63 -109
-110 -31 -119 55 -228 184 -232 98 -3 169 42 211 132 46 96 25 211 -52 290
-59 61 -120 87 -209 88 -127 2 -232 -68 -292 -191 -23 -49 -27 -70 -27 -147 0
-79 3 -97 28 -145 15 -30 38 -66 52 -81 13 -14 24 -30 24 -37 0 -15 -94 -84
-151 -110 -96 -43 -167 -56 -319 -56 -161 -1 -246 16 -358 73 -99 50 -172 145
-172 222 0 10 -4 20 -9 23 -5 3 -55 -16 -112 -43 -184 -86 -304 -96 -435 -35
-167 79 -261 307 -199 483 30 87 109 170 190 201 24 9 30 6 68 -35 168 -184
494 -79 483 155 -5 114 -89 193 -202 191 -110 -1 -181 -77 -163 -175 8 -47 56
-96 94 -96 54 0 82 62 49 108 -14 20 -14 23 0 28 26 10 65 -5 82 -31 15 -23
15 -30 3 -62 -41 -107 -224 -97 -287 15 -73 130 34 312 183 312 76 0 139 -43
216 -145 68 -93 65 -92 79 -22 41 212 122 356 260 468 79 63 132 85 275 113
41 8 137 -5 187 -25z m1593 -1024 c98 -11 171 -26 267 -55 439 -135 784 -478
922 -919 44 -138 44 -148 2 -183 -78 -64 -126 -168 -126 -273 l0 -61 -52 -26
c-133 -66 -219 -175 -258 -324 -7 -28 -17 -43 -30 -47 -42 -11 -55 -69 -55
-244 l0 -162 -30 23 c-63 47 -107 61 -185 61 -41 0 -90 -4 -107 -9 -27 -7 -33
-6 -33 7 0 8 -15 37 -33 63 -18 27 -47 69 -64 94 -35 50 -48 104 -29 119 6 6
62 12 124 15 115 5 132 8 132 30 0 34 -56 59 -159 71 -34 4 -73 9 -88 11 -135
16 -347 21 -610 11 -81 -3 -107 -7 -122 -22 -27 -24 -34 -47 -22 -79 10 -24
15 -26 64 -26 64 0 93 -17 82 -49 -4 -12 -47 -68 -97 -124 -93 -105 -127 -160
-122 -199 1 -13 3 -31 3 -40 1 -28 37 -57 63 -53 102 18 162 21 359 17 123 -2
256 -5 296 -5 71 -1 72 -2 59 -22 -18 -28 -32 -100 -32 -161 l1 -51 -63 -33
c-34 -18 -90 -60 -123 -93 l-61 -60 -110 7 c-61 3 -113 8 -117 10 -3 2 -26 7
-51 10 -173 23 -455 151 -613 278 l-28 23 17 40 c9 22 18 71 20 110 2 38 8 95
14 125 6 30 8 86 4 125 -4 41 -1 97 6 135 16 81 18 113 24 380 6 218 16 290
50 342 19 29 28 133 14 161 -5 9 -17 17 -28 17 -37 0 -86 -140 -105 -300 -3
-30 -10 -80 -15 -110 -5 -30 -12 -93 -15 -140 -10 -142 -15 -203 -20 -250 -11
-95 -14 -182 -15 -384 l0 -209 -53 54 c-182 185 -332 468 -373 704 -2 17 -7
37 -9 45 -16 60 -21 236 -10 367 18 219 114 489 197 554 24 18 57 49 74 67 31
32 33 33 60 19 29 -15 109 -39 130 -40 7 0 10 -14 8 -35 -8 -94 58 -120 132
-52 39 36 67 47 99 40 41 -9 236 -5 305 6 143 23 177 21 247 -14 34 -18 64
-36 67 -41 11 -18 -25 -41 -67 -42 -74 -2 -121 -6 -182 -17 -33 -6 -87 -13
-120 -17 -125 -12 -196 -36 -209 -70 -30 -80 24 -103 164 -69 36 8 118 16 185
17 104 2 126 -1 165 -19 82 -39 111 -87 99 -166 -4 -27 -6 -54 -4 -61 3 -7 7
-67 9 -134 3 -68 7 -127 11 -133 27 -44 62 48 70 185 11 193 15 233 24 258 15
38 71 59 154 57 228 -6 339 6 377 39 25 22 12 54 -32 77 -41 21 -179 44 -326
53 -121 7 -150 20 -138 59 7 21 26 26 121 37 28 3 64 8 81 10 48 8 152 7 244
-1 131 -12 236 -10 254 5 21 18 20 44 -2 64 -17 16 -155 48 -267 62 -27 4 -61
9 -75 11 -32 5 -206 5 -245 -1 -27 -4 -135 -5 -315 -4 -36 0 -103 -2 -150 -6
-128 -10 -250 -12 -250 -5 0 4 12 17 26 31 40 37 66 96 69 157 3 59 13 72 57
72 15 0 52 9 82 21 99 36 156 132 143 239 l-6 49 32 3 c44 4 182 1 242 -7z
m2396 -821 c99 -32 186 -107 241 -208 42 -79 61 -133 88 -253 12 -54 24 -100
26 -102 2 -2 14 9 26 25 51 66 115 127 153 147 96 50 252 13 363 -88 88 -80
136 -209 109 -290 -5 -16 -31 -61 -57 -100 -60 -90 -65 -99 -54 -92 10 6 105
19 159 22 81 5 173 -102 159 -182 -13 -69 -85 -98 -235 -95 l-97 1 29 -67 c36
-84 36 -119 3 -168 -43 -62 -92 -91 -191 -110 -135 -25 -296 19 -374 103 -120
128 -57 342 105 360 54 7 125 -24 152 -65 41 -62 12 -157 -54 -176 -64 -18
-118 61 -57 84 54 21 53 97 -1 122 -22 10 -33 9 -72 -12 -164 -88 -83 -329
111 -330 117 0 211 90 224 214 11 111 -45 211 -149 264 -56 29 -74 34 -136 33
-128 -1 -229 -67 -288 -186 -26 -53 -29 -71 -29 -150 0 -78 4 -97 27 -145 15
-30 39 -67 53 -82 14 -15 25 -30 25 -32 0 -12 -37 -48 -69 -68 -30 -19 -34
-19 -42 -5 -21 37 -91 117 -131 149 -160 129 -336 158 -484 79 l-52 -28 -27
66 c-104 253 -322 406 -565 394 -134 -6 -245 -55 -397 -175 -10 -8 -12 2 -7
46 12 131 78 229 191 286 45 22 46 22 59 4 28 -39 65 -71 111 -95 68 -34 197
-35 263 -1 93 49 133 111 134 208 1 51 -4 69 -29 109 -69 112 -235 130 -308
34 -31 -42 -40 -93 -23 -134 30 -71 95 -97 136 -53 24 26 26 55 5 84 -16 24
-11 34 19 34 55 0 87 -60 60 -112 -31 -60 -134 -79 -212 -39 -138 71 -120 287
31 360 105 51 197 9 307 -139 29 -39 54 -70 55 -68 2 2 6 19 9 38 10 66 56
211 85 269 129 254 393 388 622 315z m-957 -1119 c175 -53 290 -212 342 -472
10 -51 21 -93 25 -93 4 0 23 20 43 44 61 75 99 108 144 128 143 64 359 -37
442 -207 19 -38 25 -65 24 -115 -1 -69 -5 -79 -72 -177 -47 -69 -50 -77 -24
-69 20 6 127 18 160 18 56 1 131 -83 139 -155 10 -88 -65 -127 -234 -122 -51
1 -93 0 -93 -2 0 -2 12 -31 26 -65 30 -71 33 -112 10 -156 -81 -156 -397 -174
-560 -32 -113 100 -96 292 33 357 103 53 231 -15 231 -122 0 -34 -25 -82 -49
-95 -49 -26 -120 6 -107 48 4 12 12 22 17 22 19 0 49 41 49 68 0 64 -74 84
-137 36 -100 -76 -81 -234 37 -294 156 -80 330 46 323 232 -5 138 -137 258
-282 258 -215 0 -371 -212 -315 -429 15 -54 37 -94 82 -143 l24 -26 -34 -32
c-191 -184 -640 -194 -877 -20 -52 38 -103 134 -104 198 0 6 -2 12 -3 12 -2 0
-43 -20 -92 -45 -110 -56 -175 -76 -264 -80 -163 -7 -298 73 -367 218 -97 206
-24 420 172 505 26 11 29 10 44 -17 56 -96 242 -144 358 -91 195 88 192 357
-5 410 -118 32 -220 -39 -220 -152 0 -34 6 -47 38 -79 38 -37 46 -40 89 -25
31 10 45 63 25 94 -13 20 -13 25 -1 33 31 19 89 -22 89 -63 0 -29 -29 -74 -58
-90 -14 -7 -51 -12 -83 -12 -165 2 -236 190 -122 324 42 48 79 69 134 75 81 8
153 -38 239 -155 29 -39 54 -69 57 -67 2 2 15 50 28 107 52 215 154 366 309
459 109 65 263 89 370 56z m-1483 -36 c91 -35 186 -116 193 -166 2 -10 -5 -35
-15 -55 -22 -43 -54 -53 -154 -49 -33 1 -139 3 -235 4 -96 1 -181 6 -187 10
-7 5 -13 15 -13 24 0 21 87 160 119 189 65 60 197 80 292 43z"/>
<path d="M3851 3866 c-7 -8 -4 -35 8 -81 22 -85 30 -165 37 -355 4 -146 11
-203 40 -337 14 -65 19 -73 39 -73 40 0 49 43 48 244 -1 113 -7 215 -17 271
-16 96 -30 218 -28 249 1 21 -24 76 -36 76 -4 0 -24 4 -44 9 -26 6 -40 5 -47
-3z"/>
<path d="M2668 3774 c-3 -2 -33 -6 -67 -9 -105 -8 -151 -49 -113 -101 38 -51
55 -52 322 -18 52 6 89 24 95 45 8 23 -9 54 -32 63 -30 12 -197 28 -205 20z"/>
<path d="M3397 3761 c-76 -18 -107 -44 -107 -91 0 -36 17 -49 60 -44 19 2 110
4 202 4 154 1 168 2 178 20 15 27 3 46 -45 75 -78 45 -187 59 -288 36z"/>
<path d="M2582 3541 c-40 -10 -79 -24 -85 -30 -16 -16 -13 -79 5 -97 19 -19
124 -25 225 -12 120 14 212 85 166 129 -29 27 -217 33 -311 10z"/>
<path d="M3489 3526 c-2 -2 -40 -6 -84 -10 -90 -7 -113 -21 -117 -75 l-3 -34
57 -3 c31 -2 74 -7 95 -11 21 -5 65 -6 98 -3 58 6 124 5 174 -2 59 -8 47 74
-18 114 -28 18 -53 23 -117 25 -45 1 -83 1 -85 -1z"/>
<path d="M2955 3279 c-88 -3 -185 -11 -215 -18 -65 -14 -108 -20 -173 -25 -27
-2 -53 -8 -59 -14 -12 -12 -16 -78 -5 -88 13 -13 82 -6 134 14 48 17 59 18
120 6 64 -12 237 -16 448 -12 55 1 175 1 266 -1 191 -3 242 8 232 51 -3 13
-10 28 -15 34 -11 15 -107 41 -183 50 -77 9 -346 11 -550 3z"/>
<path d="M2520 2972 c-74 -9 -105 -44 -95 -105 5 -30 36 -67 56 -67 5 0 18 15
29 33 21 36 28 44 59 70 15 12 21 27 19 44 -3 27 -16 32 -68 25z"/>
</g>
</svg>
